<?xml version="1.0" encoding="utf-8"?>
<!-- Generator: Adobe Illustrator 23.0.0, SVG Export Plug-In . SVG Version: 6.00 Build 0)  -->
<svg version="1.1" id="레이어_1" xmlns="http://www.w3.org/2000/svg" xmlns:xlink="http://www.w3.org/1999/xlink" x="0px"
	 y="0px" viewBox="0 0 1122 72" style="enable-background:new 0 0 1122 72;" xml:space="preserve">
<style type="text/css">
	.st0{fill:#FFFFFF;}
</style>
<g>
	<path class="st0" d="M24.4,18.9c-1.4,1-2.8,2.4-4.3,4.4l-4.8-3.8c0.9-1.3,1.9-2.5,2.8-3.5c1-1,2-1.9,3.1-2.6
		c1.1-0.7,2.4-1.2,3.7-1.6c1.4-0.4,2.9-0.6,4.6-0.6c1.9,0,3.7,0.3,5.3,0.8c1.6,0.6,2.9,1.4,4.1,2.4c1.1,1,2,2.3,2.6,3.7
		s0.9,3,0.9,4.7c0,1.6-0.2,2.9-0.6,4.2c-0.4,1.2-1,2.4-1.9,3.6c-0.8,1.1-1.9,2.3-3.2,3.5c-1.3,1.2-2.8,2.5-4.5,3.9l-8,6.7h18.5v6
		H14.8v-5.4L28.1,34c1.3-1.1,2.5-2.1,3.4-3c0.9-0.9,1.7-1.8,2.3-2.6c0.6-0.8,1-1.6,1.2-2.4c0.3-0.8,0.4-1.6,0.4-2.5
		c0-1.9-0.6-3.4-1.8-4.5s-2.7-1.6-4.5-1.6C27.4,17.5,25.8,18,24.4,18.9z"/>
	<path class="st0" d="M93,39.1c-0.8,2.5-2,4.6-3.4,6.4c-1.5,1.8-3.3,3.3-5.4,4.3c-2.1,1.1-4.4,1.6-7,1.6s-4.9-0.5-6.9-1.6
		c-2.1-1-3.9-2.5-5.3-4.3c-1.5-1.8-2.6-3.9-3.4-6.4c-0.8-2.4-1.2-5.1-1.2-7.8s0.4-5.4,1.2-7.9s2-4.6,3.4-6.4
		c1.5-1.8,3.3-3.3,5.4-4.3c2.1-1.1,4.4-1.6,7-1.6s4.9,0.5,6.9,1.6c2.1,1,3.9,2.5,5.3,4.3c1.5,1.8,2.6,3.9,3.4,6.4
		c0.8,2.4,1.2,5.1,1.2,7.8S93.8,36.6,93,39.1z M86.5,25.9c-0.5-1.7-1.1-3.2-2-4.4c-0.9-1.3-1.9-2.3-3.1-3s-2.6-1.1-4.1-1.1
		s-2.9,0.4-4.1,1.1s-2.2,1.7-3.1,2.9c-0.9,1.2-1.5,2.7-2,4.4c-0.5,1.7-0.7,3.5-0.7,5.4c0,2,0.2,3.8,0.7,5.5c0.5,1.7,1.1,3.2,2,4.4
		c0.9,1.3,1.9,2.3,3.1,3s2.6,1.1,4.1,1.1s2.9-0.4,4.1-1.1c1.2-0.7,2.2-1.7,3.1-3s1.5-2.7,2-4.4s0.7-3.5,0.7-5.4S87,27.6,86.5,25.9z"
		/>
	<path class="st0" d="M120.4,18.9c-1.4,1-2.8,2.4-4.3,4.4l-4.8-3.8c0.9-1.3,1.9-2.5,2.8-3.5c1-1,2-1.9,3.1-2.6
		c1.1-0.7,2.4-1.2,3.7-1.6c1.4-0.4,2.9-0.6,4.6-0.6c1.9,0,3.7,0.3,5.3,0.8c1.6,0.6,2.9,1.4,4.1,2.4c1.1,1,2,2.3,2.6,3.7
		s0.9,3,0.9,4.7c0,1.6-0.2,2.9-0.6,4.2c-0.4,1.2-1,2.4-1.9,3.6c-0.8,1.1-1.9,2.3-3.2,3.5c-1.3,1.2-2.8,2.5-4.5,3.9l-8,6.7h18.5v6
		h-28.1v-5.4L124.1,34c1.3-1.1,2.5-2.1,3.4-3c0.9-0.9,1.7-1.8,2.3-2.6c0.6-0.8,1-1.6,1.2-2.4c0.3-0.8,0.4-1.6,0.4-2.5
		c0-1.9-0.6-3.4-1.8-4.5s-2.7-1.6-4.5-1.6C123.3,17.5,121.7,18,120.4,18.9z"/>
	<path class="st0" d="M165,11.6h4.8v39.2H163V18.5l-7,1.9l-1.4-5.6L165,11.6z"/>
	<path class="st0" d="M246.7,42c-0.8,1.9-1.9,3.5-3.3,4.9c-1.4,1.4-3,2.5-5,3.3c-1.9,0.8-4,1.2-6.3,1.2c-2.2,0-4.3-0.4-6.2-1.2
		s-3.6-1.9-4.9-3.3c-1.4-1.4-2.5-3-3.2-4.8c-0.8-1.8-1.2-3.8-1.2-5.9c0-2.1,0.4-4.1,1.2-6c0.8-1.9,1.9-3.5,3.3-4.9s3-2.5,4.9-3.3
		s4-1.2,6.2-1.2c2.3,0,4.3,0.4,6.2,1.2c1.9,0.8,3.6,1.9,4.9,3.3s2.5,3,3.3,4.9c0.8,1.9,1.2,3.8,1.2,5.9
		C247.9,38.2,247.5,40.2,246.7,42z M240.5,32.5c-0.4-1.1-1.1-2.2-1.8-3c-0.8-0.9-1.7-1.6-2.8-2.1s-2.3-0.7-3.6-0.7s-2.5,0.3-3.6,0.7
		c-1.1,0.5-2,1.2-2.8,2c-0.8,0.9-1.4,1.8-1.8,3c-0.4,1.1-0.6,2.3-0.6,3.6s0.2,2.5,0.7,3.7c0.4,1.2,1.1,2.2,1.8,3s1.7,1.5,2.8,2
		s2.3,0.8,3.6,0.8c1.4,0,2.6-0.3,3.7-0.8c1.1-0.5,2-1.2,2.8-2s1.4-1.8,1.8-3c0.4-1.1,0.6-2.3,0.6-3.6S240.9,33.7,240.5,32.5z"/>
	<path class="st0" d="M285.9,46.1c-0.6,1.1-1.3,2.1-2.3,2.9c-1,0.8-2.1,1.3-3.5,1.7c-1.3,0.4-2.8,0.6-4.3,0.6
		c-2.1,0-4.2-0.4-6.4-1.1s-4.2-1.8-6-3.3l3-4.6c1.6,1.2,3.2,2.1,4.9,2.7c1.6,0.6,3.2,0.9,4.7,0.9c1.4,0,2.6-0.3,3.4-0.9
		c0.8-0.6,1.2-1.3,1.2-2.3v-0.1c0-0.6-0.2-1-0.5-1.4c-0.4-0.4-0.8-0.8-1.4-1.1s-1.3-0.6-2.1-0.8c-0.8-0.2-1.6-0.5-2.5-0.7
		c-1.1-0.3-2.2-0.7-3.3-1.1c-1.1-0.4-2.1-0.9-2.9-1.6c-0.9-0.6-1.6-1.4-2.1-2.4c-0.6-0.9-0.8-2.1-0.8-3.5v-0.1
		c0-1.4,0.3-2.6,0.8-3.7s1.3-2.1,2.2-2.8c0.9-0.8,2.1-1.4,3.3-1.8c1.3-0.4,2.6-0.6,4.1-0.6c1.9,0,3.7,0.3,5.6,0.9s3.6,1.4,5.2,2.4
		l-2.7,4.8c-1.4-0.9-2.8-1.5-4.3-2s-2.8-0.8-4-0.8c-1.3,0-2.3,0.3-3,0.8s-1.1,1.3-1.1,2.1v0.1c0,0.5,0.2,1,0.6,1.4s0.9,0.7,1.5,1.1
		c0.6,0.3,1.3,0.6,2.1,0.9c0.8,0.3,1.6,0.5,2.5,0.8c1.1,0.3,2.1,0.7,3.2,1.2c1.1,0.4,2,1,2.9,1.6s1.6,1.4,2.1,2.4
		c0.6,0.9,0.8,2.1,0.8,3.4v0.1C286.8,43.6,286.5,45,285.9,46.1z"/>
	<path class="st0" d="M323.9,21.4h6.8v29.3h-6.8v-4.6c-1,1.4-2.2,2.6-3.6,3.7c-1.4,1-3.3,1.5-5.5,1.5c-3.3,0-5.9-1-7.7-3.1
		c-1.8-2-2.7-4.8-2.7-8.2V21.4h6.8V38c0,2.3,0.5,4.1,1.6,5.3s2.6,1.9,4.6,1.9c1.9,0,3.5-0.6,4.7-1.9c1.2-1.3,1.8-3.1,1.8-5.3
		L323.9,21.4L323.9,21.4z"/>
	<path class="st0" d="M358.4,11.9v1.9l-2.1,24.7h-3.7l-2.1-24.7v-1.9H358.4z M350.8,50.7v-7.6h7.4v7.6H350.8z"/>
	<path class="st0" d="M433.4,50.7h-7.8L416.8,38l-4.1,4.3v8.4h-6.8V10.2h6.8v24.2l12.2-13h8.2l-11.7,11.9L433.4,50.7z"/>
	<path class="st0" d="M476.5,42c-0.8,1.9-1.9,3.5-3.3,4.9s-3,2.5-5,3.3c-1.9,0.8-4,1.2-6.3,1.2c-2.2,0-4.3-0.4-6.2-1.2
		c-1.9-0.8-3.6-1.9-4.9-3.3c-1.4-1.4-2.5-3-3.2-4.8c-0.8-1.8-1.2-3.8-1.2-5.9c0-2.1,0.4-4.1,1.2-6c0.8-1.9,1.9-3.5,3.3-4.9
		s3-2.5,4.9-3.3s4-1.2,6.2-1.2c2.3,0,4.3,0.4,6.2,1.2c1.9,0.8,3.6,1.9,4.9,3.3s2.5,3,3.3,4.9c0.8,1.9,1.2,3.8,1.2,5.9
		C477.6,38.2,477.2,40.2,476.5,42z M470.2,32.5c-0.4-1.1-1.1-2.2-1.8-3c-0.8-0.9-1.7-1.6-2.8-2.1c-1.1-0.5-2.3-0.7-3.6-0.7
		c-1.3,0-2.5,0.3-3.6,0.7c-1.1,0.5-2,1.2-2.8,2c-0.8,0.9-1.4,1.8-1.8,3c-0.4,1.1-0.6,2.3-0.6,3.6s0.2,2.5,0.7,3.7
		c0.4,1.2,1.1,2.2,1.8,3s1.7,1.5,2.8,2c1.1,0.5,2.3,0.8,3.6,0.8c1.4,0,2.6-0.3,3.7-0.8s2-1.2,2.8-2s1.4-1.8,1.8-3
		c0.4-1.1,0.6-2.3,0.6-3.6S470.6,33.7,470.2,32.5z"/>
	<path class="st0" d="M502.4,50.7h-6.8V21.4h6.8V28c0.9-2.2,2.2-4,3.9-5.3c1.7-1.3,3.9-1.9,6.4-1.8V28h-0.4c-1.5,0-2.8,0.2-4.1,0.7
		c-1.2,0.5-2.3,1.2-3.2,2.2s-1.6,2.2-2.1,3.6c-0.5,1.5-0.7,3.2-0.7,5.1v11.1H502.4z"/>
	<path class="st0" d="M536.6,44c1.5,1.3,3.4,1.9,5.6,1.9c1.7,0,3.1-0.3,4.3-0.9c1.2-0.6,2.4-1.5,3.6-2.6l3.9,3.5c-1.4,1.7-3.1,3-5,4
		s-4.3,1.5-7,1.5c-2.1,0-4.1-0.4-5.9-1.1c-1.8-0.7-3.4-1.8-4.8-3.1c-1.4-1.3-2.4-2.9-3.2-4.8c-0.8-1.9-1.2-4-1.2-6.2
		c0-2.1,0.4-4.1,1.1-5.9c0.7-1.9,1.7-3.5,3-4.9s2.8-2.5,4.5-3.3s3.7-1.2,5.8-1.2c2.3,0,4.4,0.4,6.1,1.3c1.8,0.9,3.2,2,4.4,3.4
		s2,3.1,2.6,5.1c0.6,1.9,0.9,3.9,0.9,6.1c0,0.3,0,0.6,0,0.9c0,0.3,0,0.6-0.1,0.9h-21.6C534.2,40.9,535.1,42.7,536.6,44z M548.8,34
		c-0.1-1.1-0.4-2.1-0.7-3c-0.4-0.9-0.9-1.8-1.5-2.4c-0.6-0.7-1.4-1.2-2.2-1.6c-0.9-0.4-1.9-0.6-3-0.6c-2.1,0-3.8,0.7-5.1,2.1
		c-1.4,1.4-2.2,3.3-2.5,5.6L548.8,34L548.8,34z"/>
	<path class="st0" d="M591.2,50.7v-3.6c-1,1.2-2.3,2.2-3.8,3c-1.6,0.8-3.4,1.2-5.7,1.2c-1.4,0-2.7-0.2-4-0.6c-1.3-0.4-2.4-1-3.3-1.7
		c-0.9-0.8-1.7-1.7-2.3-2.8s-0.9-2.4-0.9-3.9v-0.1c0-1.6,0.3-3,0.9-4.2c0.6-1.2,1.4-2.2,2.5-2.9c1.1-0.8,2.3-1.4,3.8-1.8
		c1.5-0.4,3-0.6,4.7-0.6c1.8,0,3.3,0.1,4.5,0.3s2.4,0.5,3.6,0.9v-0.7c0-2-0.6-3.6-1.9-4.7c-1.2-1.1-3-1.6-5.4-1.6
		c-1.7,0-3.1,0.2-4.4,0.5c-1.3,0.3-2.6,0.8-3.9,1.3l-1.8-5.4c1.6-0.7,3.3-1.3,5-1.8c1.7-0.4,3.8-0.7,6.2-0.7c4.4,0,7.6,1.1,9.7,3.2
		c2.1,2.2,3.2,5.2,3.2,9.1v17.4h-6.7V50.7z M591.4,38.3c-0.9-0.3-1.9-0.6-3-0.8c-1.2-0.2-2.4-0.3-3.7-0.3c-2.1,0-3.8,0.4-4.9,1.2
		c-1.2,0.8-1.8,2-1.8,3.5V42c0,1.4,0.5,2.5,1.6,3.2s2.4,1.1,4,1.1c1.1,0,2.1-0.1,3.1-0.4c0.9-0.3,1.8-0.7,2.5-1.3
		c0.7-0.5,1.2-1.2,1.6-1.9c0.4-0.8,0.6-1.6,0.6-2.5L591.4,38.3L591.4,38.3z"/>
	<path class="st0" d="M623.8,50.7H617V21.4h6.8V26c0.5-0.7,1-1.4,1.6-2s1.2-1.2,2-1.7s1.6-0.9,2.5-1.1c0.9-0.3,1.9-0.4,3.1-0.4
		c3.3,0,5.9,1,7.7,3.1c1.8,2,2.7,4.8,2.7,8.2v18.7h-6.8V34.1c0-2.3-0.5-4.1-1.6-5.3c-1.1-1.2-2.6-1.9-4.6-1.9
		c-1.9,0-3.5,0.6-4.7,1.9s-1.8,3.1-1.8,5.3v16.6H623.8z"/>
	<path class="st0" d="M698.5,41.6c0,1.3,0.3,2.2,0.9,2.8c0.6,0.6,1.5,0.9,2.7,0.9c1.4,0,2.8-0.3,4.2-1v5.5c-0.9,0.5-1.8,0.9-2.7,1.1
		s-2.1,0.4-3.3,0.4s-2.4-0.1-3.4-0.4c-1-0.3-2-0.8-2.7-1.4c-0.8-0.7-1.4-1.5-1.8-2.6c-0.4-1.1-0.6-2.5-0.6-4.1V27.1H688v-5.7h3.7
		v-8.1h6.8v8.1h7.9v5.7h-7.9V41.6z"/>
	<path class="st0" d="M751.9,42c-0.8,1.9-1.9,3.5-3.3,4.9s-3,2.5-5,3.3c-1.9,0.8-4,1.2-6.3,1.2c-2.2,0-4.3-0.4-6.2-1.2
		s-3.6-1.9-4.9-3.3c-1.4-1.4-2.5-3-3.3-4.8s-1.2-3.8-1.2-5.9c0-2.1,0.4-4.1,1.2-6c0.8-1.9,1.9-3.5,3.3-4.9s3-2.5,4.9-3.3
		s4-1.2,6.3-1.2s4.3,0.4,6.2,1.2c1.9,0.8,3.6,1.9,4.9,3.3s2.5,3,3.2,4.9c0.8,1.9,1.2,3.8,1.2,5.9C753.1,38.2,752.7,40.2,751.9,42z
		 M745.6,32.5c-0.4-1.1-1.1-2.2-1.8-3c-0.8-0.9-1.7-1.6-2.8-2.1s-2.3-0.7-3.6-0.7s-2.5,0.3-3.6,0.7c-1.1,0.5-2,1.2-2.8,2
		s-1.4,1.8-1.8,3c-0.4,1.1-0.6,2.3-0.6,3.6s0.2,2.5,0.7,3.7c0.4,1.2,1.1,2.2,1.8,3c0.8,0.9,1.7,1.5,2.8,2s2.3,0.8,3.6,0.8
		c1.4,0,2.6-0.3,3.7-0.8s2-1.2,2.8-2s1.4-1.8,1.8-3c0.4-1.1,0.6-2.3,0.6-3.6S746.1,33.7,745.6,32.5z"/>
	<path class="st0" d="M800.2,42.6c-0.8,1.9-1.8,3.5-3.1,4.8s-2.7,2.3-4.4,3c-1.6,0.7-3.3,1-5.1,1c-2.4,0-4.4-0.5-6-1.6
		c-1.6-1-2.9-2.2-3.9-3.6l0.1,13.4H771V21.4h6.8v4.9c1.1-1.6,2.4-2.9,4-3.9c1.6-1.1,3.6-1.6,5.9-1.6c1.7,0,3.4,0.3,5,1
		s3.1,1.7,4.4,3c1.3,1.3,2.3,2.9,3.1,4.8s1.2,4.1,1.2,6.5S801,40.7,800.2,42.6z M793.9,32.2c-0.4-1.2-1-2.2-1.8-3s-1.6-1.4-2.7-1.9
		c-1-0.4-2.1-0.7-3.3-0.7c-1.1,0-2.2,0.2-3.3,0.7c-1,0.4-1.9,1.1-2.7,1.9s-1.4,1.8-1.9,3c-0.5,1.1-0.7,2.4-0.7,3.9s0.2,2.7,0.7,3.9
		c0.5,1.1,1.1,2.1,1.9,3s1.7,1.5,2.7,1.9s2.1,0.7,3.3,0.7c1.1,0,2.2-0.2,3.3-0.7c1-0.4,1.9-1.1,2.7-1.9c0.8-0.8,1.4-1.8,1.8-3
		c0.4-1.2,0.7-2.5,0.7-3.9S794.3,33.3,793.9,32.2z"/>
	<path class="st0" d="M876.3,42.6c-0.8,1.9-1.8,3.5-3.1,4.8s-2.7,2.3-4.4,3c-1.6,0.7-3.3,1-5.1,1c-2.4,0-4.4-0.5-6-1.6
		c-1.6-1-2.9-2.2-3.9-3.6l0.1,13.4h-6.8V21.4h6.8v4.9c1.1-1.6,2.4-2.9,4-3.9c1.6-1.1,3.6-1.6,5.9-1.6c1.7,0,3.4,0.3,5,1
		s3.1,1.7,4.4,3c1.3,1.3,2.3,2.9,3.1,4.8s1.2,4.1,1.2,6.5S877.1,40.7,876.3,42.6z M870,32.2c-0.4-1.2-1-2.2-1.8-3s-1.6-1.4-2.7-1.9
		c-1-0.4-2.1-0.7-3.3-0.7c-1.1,0-2.2,0.2-3.3,0.7c-1,0.4-1.9,1.1-2.7,1.9s-1.4,1.8-1.9,3c-0.5,1.1-0.7,2.4-0.7,3.9s0.2,2.7,0.7,3.9
		c0.5,1.1,1.1,2.1,1.9,3s1.7,1.5,2.7,1.9s2.1,0.7,3.3,0.7c1.1,0,2.2-0.2,3.3-0.7c1-0.4,1.9-1.1,2.7-1.9c0.8-0.8,1.4-1.8,1.8-3
		c0.4-1.2,0.7-2.5,0.7-3.9S870.4,33.3,870,32.2z"/>
	<path class="st0" d="M895.8,50.7V10.2h6.8v40.6L895.8,50.7L895.8,50.7z"/>
	<path class="st0" d="M940.4,50.7v-3.6c-1,1.2-2.3,2.2-3.8,3c-1.6,0.8-3.4,1.2-5.7,1.2c-1.4,0-2.7-0.2-4-0.6c-1.3-0.4-2.4-1-3.3-1.7
		c-0.9-0.8-1.7-1.7-2.3-2.8s-0.9-2.4-0.9-3.9v-0.1c0-1.6,0.3-3,0.9-4.2c0.6-1.2,1.4-2.2,2.5-2.9s2.3-1.4,3.8-1.8
		c1.5-0.4,3-0.6,4.7-0.6c1.8,0,3.3,0.1,4.5,0.3s2.4,0.5,3.6,0.9v-0.7c0-2-0.6-3.6-1.9-4.7c-1.2-1.1-3-1.6-5.4-1.6
		c-1.7,0-3.1,0.2-4.4,0.5c-1.3,0.3-2.6,0.8-3.9,1.3l-1.8-5.4c1.6-0.7,3.3-1.3,5-1.8s3.8-0.7,6.2-0.7c4.4,0,7.6,1.1,9.7,3.2
		c2.1,2.2,3.2,5.2,3.2,9.1v17.4h-6.7V50.7z M940.5,38.3c-0.9-0.3-1.9-0.6-3-0.8c-1.2-0.2-2.4-0.3-3.7-0.3c-2.1,0-3.8,0.4-4.9,1.2
		c-1.2,0.8-1.8,2-1.8,3.5V42c0,1.4,0.5,2.5,1.6,3.2s2.4,1.1,4,1.1c1.1,0,2.1-0.1,3.1-0.4c0.9-0.3,1.8-0.7,2.5-1.3
		c0.7-0.5,1.3-1.2,1.6-1.9c0.4-0.8,0.6-1.6,0.6-2.5L940.5,38.3L940.5,38.3z"/>
	<path class="st0" d="M980.7,51.6c-0.6,1.5-1.2,2.8-1.8,3.8s-1.3,1.9-2.1,2.5s-1.6,1.1-2.6,1.4c-0.9,0.3-2,0.4-3.2,0.4
		c-1.4,0-2.7-0.2-3.8-0.5s-2.2-0.8-3.2-1.3l2.3-5c0.6,0.3,1.3,0.6,1.9,0.8c0.6,0.2,1.3,0.3,2,0.3c1,0,1.8-0.2,2.4-0.7
		c0.6-0.5,1.2-1.4,1.8-2.7l-12.2-29.3h7.2l8.3,21.8l7.6-21.8h7L980.7,51.6z"/>
	<path class="st0" d="M1015.6,44c1.5,1.3,3.4,1.9,5.6,1.9c1.7,0,3.1-0.3,4.3-0.9c1.2-0.6,2.4-1.5,3.6-2.6l3.9,3.5
		c-1.4,1.7-3.1,3-5,4s-4.3,1.5-7,1.5c-2.1,0-4.1-0.4-5.9-1.1s-3.4-1.8-4.8-3.1c-1.4-1.3-2.4-2.9-3.2-4.8c-0.8-1.9-1.2-4-1.2-6.2
		c0-2.1,0.4-4.1,1.1-5.9c0.7-1.9,1.7-3.5,3-4.9s2.8-2.5,4.5-3.3s3.7-1.2,5.8-1.2c2.3,0,4.4,0.4,6.1,1.3c1.8,0.9,3.2,2,4.4,3.4
		c1.2,1.4,2,3.1,2.6,5.1c0.6,1.9,0.9,3.9,0.9,6.1c0,0.3,0,0.6,0,0.9c0,0.3,0,0.6-0.1,0.9h-21.6C1013.1,40.9,1014.1,42.7,1015.6,44z
		 M1027.7,34c-0.1-1.1-0.4-2.1-0.7-3s-0.9-1.8-1.5-2.4c-0.6-0.7-1.4-1.2-2.3-1.6c-0.9-0.4-1.9-0.6-3-0.6c-2.1,0-3.8,0.7-5.1,2.1
		c-1.4,1.4-2.2,3.3-2.5,5.6L1027.7,34L1027.7,34z"/>
	<path class="st0" d="M1059,50.7h-6.8V21.4h6.8V28c0.9-2.2,2.2-4,3.9-5.3c1.7-1.3,3.9-1.9,6.4-1.8V28h-0.4c-1.5,0-2.8,0.2-4.1,0.7
		c-1.2,0.5-2.3,1.2-3.2,2.2s-1.6,2.2-2.1,3.6s-0.7,3.2-0.7,5.1v11.1H1059z"/>
	<path class="st0" d="M1106.4,46.1c-0.6,1.1-1.3,2.1-2.3,2.9c-1,0.8-2.1,1.3-3.5,1.7c-1.3,0.4-2.8,0.6-4.3,0.6
		c-2.1,0-4.3-0.4-6.4-1.1s-4.2-1.8-6-3.3l3-4.6c1.6,1.2,3.2,2.1,4.9,2.7c1.6,0.6,3.2,0.9,4.8,0.9c1.4,0,2.6-0.3,3.4-0.9
		c0.8-0.6,1.2-1.3,1.2-2.3v-0.1c0-0.6-0.2-1-0.5-1.4c-0.4-0.4-0.8-0.8-1.4-1.1s-1.3-0.6-2.1-0.8c-0.8-0.2-1.6-0.5-2.5-0.7
		c-1.1-0.3-2.2-0.7-3.3-1.1c-1.1-0.4-2.1-0.9-2.9-1.6c-0.9-0.6-1.6-1.4-2.1-2.4c-0.6-0.9-0.8-2.1-0.8-3.5v-0.1
		c0-1.4,0.3-2.6,0.8-3.7s1.3-2.1,2.2-2.8c0.9-0.8,2.1-1.4,3.3-1.8c1.3-0.4,2.6-0.6,4.1-0.6c1.9,0,3.7,0.3,5.6,0.9s3.6,1.4,5.2,2.4
		l-2.7,4.8c-1.4-0.9-2.8-1.5-4.3-2s-2.8-0.8-4-0.8c-1.3,0-2.3,0.3-3,0.8c-0.7,0.6-1.1,1.3-1.1,2.1v0.1c0,0.5,0.2,1,0.6,1.4
		s0.9,0.7,1.5,1.1c0.6,0.3,1.3,0.6,2.1,0.9c0.8,0.3,1.6,0.5,2.5,0.8c1.1,0.3,2.1,0.7,3.2,1.2c1.1,0.4,2,1,2.9,1.6s1.6,1.4,2.1,2.4
		s0.8,2.1,0.8,3.4v0.1C1107.2,43.6,1107,45,1106.4,46.1z"/>
</g>
</svg>
