<?xml version="1.0" encoding="utf-8"?>
<!-- Generator: Adobe Illustrator 23.0.0, SVG Export Plug-In . SVG Version: 6.00 Build 0)  -->
<svg version="1.1" id="레이어_1" xmlns="http://www.w3.org/2000/svg" xmlns:xlink="http://www.w3.org/1999/xlink" x="0px"
	 y="0px" viewBox="0 0 849 286" style="enable-background:new 0 0 849 286;" xml:space="preserve">
<style type="text/css">
	.st0{fill:#FFFFFF;}
</style>
<g>
	<path class="st0" d="M244.7,109.9c-1,4.1-4.5,7-8.9,7h-23c-4.5,0-8-2.8-8.9-7L172.7,2.6h26l20.7,82.5c1,4.1,2,8.6,2.8,12.8h4.1
		c0.7-4.1,1.8-8.6,2.8-12.8l20.5-82.5h26L244.7,109.9z"/>
	<path class="st0" d="M414.3,59.7c0,45.9-12.9,59.3-49,59.3c-36.1,0-48.9-13.4-48.9-59.3c0-45.9,12.8-59.3,48.9-59.3
		C401.4,0.4,414.3,13.8,414.3,59.7z M343,59.7c0,30.3,5.1,38.9,22.4,38.9s22.4-8.6,22.4-38.9c0-30.3-5.1-38.9-22.4-38.9
		S343,29.4,343,59.7z"/>
	<path class="st0" d="M516.4,23.1v93.7H491V23.1h-34.1V2.6h93.6v20.5H516.4z"/>
	<path class="st0" d="M675.4,115.7c-15.6,1.7-35.3,1.7-53,1.7c-15.2,0-25-8.9-25.2-23V25.1c0.2-14.1,9.9-23,25.2-23
		c17.7,0,37.4,0,53,1.7l-1.2,18.7h-43.9c-5.5,0-7.8,2.5-7.8,8.4v17.4h45.5v18.2h-45.5v22c0,6.1,2.3,8.6,7.8,8.6h43.9L675.4,115.7z"
		/>
	<path class="st0" d="M23.9,232.5C6.5,226.2,0.3,216,0.3,199.1c0-26.2,12.1-31.6,41.6-31.6c11.3,0,24.8,0.8,37.6,4.5l-1.7,17.2
		c-9.6-0.3-23.7-0.5-35.8-0.5c-12.3,0-16.6,0.7-16.6,10.4c0,8,3.3,10.1,11.9,12.9l21.7,7.5c18.2,6.5,24.2,16.9,24.2,33.6
		c0,26-11.3,33-42.4,33c-7.3,0-21.7-0.5-39.3-4.3l1.5-18.2c21.2,0.5,30.5,0.8,37.8,0.8c13.3,0,16.9-1.8,16.9-11.1
		c0-8.1-3.1-10.1-10.8-12.6L23.9,232.5z"/>
	<path class="st0" d="M211.4,282.7c-15.6,1.7-35.3,1.7-53,1.7c-15.2,0-25-8.9-25.2-23v-69.2c0.2-14.1,9.9-23,25.2-23
		c17.7,0,37.4,0,53,1.7l-1.2,18.7h-43.9c-5.5,0-7.8,2.5-7.8,8.4v17.4h45.5v18.2h-45.5v22c0,6.1,2.3,8.6,7.8,8.6h43.9L211.4,282.7z"
		/>
	<path class="st0" d="M342.5,281.2c-10.6,3.3-20.2,4.6-36.6,4.6c-35.3,0-48-15.6-48-59.1c0-43.6,12.8-59.1,48-59.1
		c16.1,0,23.9,1.2,34.3,3.8l-2.2,18.9c-10.8-0.7-17.7-0.8-32.1-0.8c-16.6,0-21.5,8.4-21.5,37.3c0,28.8,5,37.3,21.5,37.3
		c15.2,0,24.3-0.2,34.5-1.5L342.5,281.2z"/>
	<path class="st0" d="M442.7,190.1v93.7h-25.3v-93.7h-34.1v-20.5h93.6v20.5H442.7z"/>
	<path class="st0" d="M524.5,283.9V169.6h25.2v114.3H524.5z"/>
	<path class="st0" d="M700.1,226.7c0,45.9-12.9,59.3-49,59.3c-36.1,0-48.9-13.4-48.9-59.3c0-45.9,12.8-59.3,48.9-59.3
		C687.1,167.4,700.1,180.8,700.1,226.7z M628.7,226.7c0,30.3,5.1,38.9,22.4,38.9s22.4-8.6,22.4-38.9c0-30.3-5.1-38.9-22.4-38.9
		S628.7,196.4,628.7,226.7z"/>
	<path class="st0" d="M848.8,274.8c0,6-3,9.1-8.9,9.1h-15.7c-5.3,0-7.6-2.5-10.1-7.5l-30-61c-2.3-5-5.6-12.1-7-17.7h-1.8
		c0.8,6,1.2,12.3,1.2,18.2v67.9h-24V178.7c0-6,3.1-9.1,9.1-9.1h15.4c5.3,0,7.6,2.5,10.1,7.5l29,59.1c2.5,5,5.6,11.9,8.3,18.4h1.7
		c-0.5-6.5-1-12.8-1-19.2v-65.8h23.9V274.8z"/>
</g>
</svg>
